<?xml version="1.0" standalone="no"?>
<!DOCTYPE svg PUBLIC "-//W3C//DTD SVG 20010904//EN"
 "http://www.w3.org/TR/2001/REC-SVG-20010904/DTD/svg10.dtd">
<svg version="1.0" xmlns="http://www.w3.org/2000/svg"
 width="267.000000pt" height="267.000000pt" viewBox="0 0 267.000000 267.000000"
 preserveAspectRatio="xMidYMid meet">
<metadata>
Created by potrace 1.14, written by Peter Selinger 2001-2017
</metadata>
<g transform="translate(0.000000,267.000000) scale(0.100000,-0.100000)"
fill="#000000" stroke="none">
<path d="M1070 2356 c-8 -11 -8 -25 1 -58 6 -24 12 -49 12 -55 0 -7 4 -13 8
-13 4 0 7 -6 6 -12 -1 -36 4 -49 16 -42 6 4 9 4 5 -1 -4 -4 2 -30 12 -59 27
-70 25 -85 -7 -50 -63 69 -127 96 -130 55 -2 -20 105 -138 119 -133 5 1 7 -4
5 -10 -1 -7 4 -12 11 -10 8 1 11 -1 9 -5 -3 -5 46 -62 109 -127 63 -66 114
-123 114 -128 0 -5 4 -7 9 -4 4 3 19 -7 32 -22 14 -15 16 -20 5 -12 -24 19
-55 37 -86 50 -41 17 -215 105 -220 111 -3 3 -24 15 -48 27 -38 19 -45 20 -58
8 -7 -8 -11 -21 -8 -30 6 -15 127 -96 144 -96 4 0 10 -4 12 -8 4 -11 94 -72
106 -72 6 0 12 -3 14 -7 5 -12 95 -73 107 -73 6 0 11 -3 11 -8 0 -4 12 -13 28
-19 33 -15 189 -113 179 -113 -4 0 -28 11 -54 25 -27 13 -70 34 -98 46 -27 12
-77 34 -110 49 -33 16 -98 39 -145 53 -134 40 -138 40 -150 17 -9 -16 -6 -26
14 -53 24 -32 76 -81 76 -72 0 2 12 -7 26 -20 15 -14 30 -22 34 -20 5 3 10 2
12 -2 6 -15 192 -105 253 -123 63 -19 142 -35 163 -33 6 0 12 -8 12 -19 0 -16
-5 -18 -32 -13 -18 3 -44 7 -58 9 -74 12 -106 20 -117 29 -7 5 -13 7 -13 3 0
-13 -210 82 -309 140 l-43 25 5 -43 c7 -61 12 -70 62 -101 67 -40 261 -120
276 -114 3 1 13 -4 22 -12 10 -7 17 -10 17 -6 0 4 7 2 15 -5 33 -28 9 -33 -65
-13 -31 8 -30 7 -63 21 -16 7 -34 12 -41 12 -6 0 -16 4 -22 9 -13 12 -103 35
-110 28 -3 -3 -1 -14 5 -24 6 -10 11 -13 11 -8 0 6 3 6 8 -1 14 -21 146 -93
165 -90 5 0 13 -7 18 -17 6 -9 14 -15 19 -12 5 3 44 8 86 11 43 3 85 9 95 15
25 13 37 -10 14 -28 -11 -7 -33 -14 -49 -14 -17 -1 -44 -2 -61 -3 -19 -1 -31
-7 -33 -17 -3 -17 23 -33 39 -23 25 15 4 -27 -33 -68 -39 -42 -49 -47 -103
-54 -105 -13 -303 -8 -450 12 -22 3 -53 7 -70 8 -16 2 -46 6 -65 10 -19 4 -51
8 -70 11 -19 2 -35 5 -35 6 0 1 -9 3 -20 4 -11 2 -33 6 -50 9 -16 4 -43 9 -60
12 -16 3 -43 9 -59 14 -15 6 -33 7 -39 3 -6 -3 -7 -1 -3 5 4 6 -1 11 -11 11
-10 0 -30 2 -45 5 -16 2 -28 1 -29 -2 0 -4 -2 -14 -4 -23 -3 -15 39 -66 81
-99 45 -35 125 -90 131 -90 3 0 14 -6 22 -14 27 -23 208 -115 215 -109 3 4 6
1 6 -5 0 -7 3 -11 8 -10 4 2 21 -2 37 -9 75 -28 77 -29 113 -37 13 -3 32 -8
42 -11 10 -3 31 -7 46 -10 16 -2 47 -7 69 -12 22 -5 92 -8 155 -8 109 1 118 2
177 33 63 32 63 32 51 8 -6 -14 -14 -24 -17 -24 -3 1 -16 -1 -28 -6 -23 -7
-32 -26 -12 -26 5 0 7 -4 4 -10 -3 -5 -2 -10 2 -10 5 0 17 -14 27 -31 10 -17
36 -39 59 -49 39 -17 41 -17 83 1 46 19 48 21 185 117 88 63 505 284 577 306
27 9 29 28 2 41 -10 6 -52 30 -92 54 -58 36 -84 46 -130 49 l-57 4 24 36 c28
41 32 93 15 180 -14 76 -105 256 -157 310 -7 7 -31 44 -53 81 -22 37 -48 76
-58 87 -9 11 -21 27 -27 36 -40 66 -208 298 -216 298 -11 0 -11 1 -14 -135 -1
-60 -3 -117 -4 -125 -1 -10 -9 -7 -26 13 -15 15 -38 35 -52 44 -66 43 -290
263 -268 263 3 0 -5 17 -19 38 -13 20 -40 67 -60 104 -40 74 -66 97 -86 74z
m-400 -1517 c57 -18 131 -33 205 -44 93 -13 129 -16 217 -18 54 -2 103 -8 108
-13 11 -11 -225 -11 -280 0 -14 3 -41 8 -59 10 -47 7 -179 45 -216 62 -36 16
-23 18 25 3z"/>
</g>
</svg>
